<svg width="25" height="25" viewBox="0 0 25 25" fill="none" xmlns="http://www.w3.org/2000/svg">
<g clip-path="url(#clip0_32_2)">
<path d="M17.2153 6.24994C15.8438 6.24994 14.5742 6.47064 13.4526 6.87787L14.0586 0.866639C14.1113 0.356874 13.6626 -0.0576769 13.1509 0.00628796C9.25928 0.494569 6.25 3.79096 6.25 7.78461C6.25 9.15619 6.4707 10.4257 6.87793 11.5473L0.866701 10.9413C0.356935 10.8886 -0.0576158 11.3373 0.006349 11.8491C0.49463 15.7407 3.79102 18.7499 7.78467 18.7499C9.15625 18.7499 10.4258 18.5292 11.5474 18.122L10.9414 24.1332C10.8901 24.6425 11.3374 25.0576 11.8491 24.9936C15.7407 24.5053 18.75 21.2089 18.75 17.2153C18.75 15.8437 18.5293 14.5742 18.1221 13.4526L24.1333 14.0585C24.6431 14.1098 25.0576 13.6625 24.9937 13.1508C24.5054 9.25922 21.209 6.24994 17.2153 6.24994V6.24994ZM12.5 14.0624C12.191 14.0624 11.8889 13.9708 11.6319 13.7991C11.375 13.6274 11.1747 13.3834 11.0564 13.0979C10.9382 12.8124 10.9072 12.4982 10.9675 12.1951C11.0278 11.892 11.1766 11.6136 11.3951 11.3951C11.6137 11.1766 11.8921 11.0278 12.1952 10.9675C12.4983 10.9072 12.8124 10.9381 13.0979 11.0564C13.3835 11.1746 13.6275 11.3749 13.7992 11.6319C13.9709 11.8888 14.0625 12.1909 14.0625 12.4999C14.0625 12.9143 13.8979 13.3118 13.6049 13.6048C13.3118 13.8978 12.9144 14.0624 12.5 14.0624V14.0624Z" fill="#8AC926"/>
</g>
<defs>
<clipPath id="clip0_32_2">
<rect width="25" height="25" fill="white"/>
</clipPath>
</defs>
</svg>
